<?xml version="1.0" ?><svg viewBox="0 0 64 64" xmlns="http://www.w3.org/2000/svg"><title/><g data-name="Layer 3" id="Layer_3"><path d="M13.88,62.5H50.17V32h0l-.05-5.45a18.15,18.15,0,0,0-36.29.37L13.88,32h0ZM27.5,54.8a2.15,2.15,0,0,0,2-2.13V50.88c.13,0,.26,0,.4.06l.24,0,.51.05.58,0,.77,0,.78,0,.54,0L33.8,51l.3,0,.4-.06v1.79a2.15,2.15,0,0,0,2,2.13l.9.06c-.34.81-1.54,2.79-5.41,2.86s-5.13-2.12-5.41-2.86ZM39.36,25c.81,1.55,3.53,6.42,6.14,7v.56h2.31a.68.68,0,0,1,.69.69V39a3.51,3.51,0,0,1-3.27,3.48l-.31,0-.12.3a9.53,9.53,0,0,1-4.88,5.27,33.18,33.18,0,0,1-3.22,1.27c-.57.18-1.16.34-1.78.47h-.1l-.07,0-.4.06L34,50l-.22,0-.51.05-.5,0c-.49,0-1,0-1.45,0l-.54,0L30.2,50,30,50c-.13,0-.25,0-.43-.07l-.34-.05-.16,0a17.47,17.47,0,0,1-1.8-.47,33.18,33.18,0,0,1-3.22-1.27,9.53,9.53,0,0,1-4.88-5.27l-.12-.3-.31,0A3.51,3.51,0,0,1,15.5,39v-5.8a.68.68,0,0,1,.69-.69H18.5v-.45c2.64.26,15.11,1,20.28-7ZM46.5,61.5h-29v-3a3.27,3.27,0,0,1,3-3.25L24.21,55l1.36-.09c.26.85,1.53,3.87,6.44,3.79s6.17-3,6.42-3.79L39.8,55l3.66.25a3.27,3.27,0,0,1,3,3.25Z"/><path d="M26,35a1,1,0,0,0-1,1v3a1,1,0,0,0,2,0V36A1,1,0,0,0,26,35Z"/><path d="M37,36v3a1,1,0,0,0,2,0V36a1,1,0,0,0-2,0Z"/></g></svg>