<?xml version="1.0" encoding="UTF-8"?>
<svg width="692px" height="800px" viewBox="0 0 692 800" version="1.1" xmlns="http://www.w3.org/2000/svg" xmlns:xlink="http://www.w3.org/1999/xlink">
    <title>icon-scene3</title>
    <g id="Page-1" stroke="none" stroke-width="1" fill="none" fill-rule="evenodd">
        <g id="icon-scene3" transform="translate(0.2344, 0)" fill="#000000" fill-rule="nonzero">
            <path fill="white" stroke="white" stroke-width="15"  d="M656.929688,391.595312 C652.740625,386.54375 645.251563,385.842187 640.2,390.026563 C635.148438,394.214063 634.445313,401.703125 638.63125,406.75625 C657.41875,429.432812 667.76875,458.171875 667.76875,487.676562 C667.76875,553.654688 617.157812,608.014062 552.725,614.028125 L552.725,361.296875 C568.85,362.773437 584.30625,367.26875 598.810938,374.729687 C600.55,375.623437 602.40625,376.048437 604.235938,376.048437 C608.546875,376.048437 612.704688,373.695312 614.8125,369.6 C617.814063,363.765625 615.515625,356.601562 609.68125,353.6 C592.060938,344.5375 572.576563,339.053125 552.726562,337.478125 L552.726562,187.2375 C552.726562,182.982812 550.451563,179.053125 546.7625,176.935937 C543.071875,174.817187 538.534375,174.832812 534.857813,176.975 L418.915625,244.609375 C413.246875,247.915625 411.334375,255.192187 414.640625,260.859375 C417.948438,266.526562 425.223438,268.440625 430.890625,265.134375 L473.154688,240.479687 L473.154688,734.876562 L302.260938,635.184375 L302.260938,340.171875 L371.557813,299.745313 C377.226562,296.439062 379.139062,289.164063 375.832812,283.496875 C372.523438,277.828125 365.248438,275.914062 359.582813,279.221875 L287.167188,321.467188 L222.548438,321.467188 L167.470313,321.467188 L167.470313,11.88125 C167.470313,5.3203125 162.15,0 155.589063,0 L78.8375,0 C72.2765625,0 66.95625,5.3203125 66.95625,11.88125 L66.95625,120.920312 C66.95625,127.48125 90.71875,127.48125 90.71875,120.920312 L90.71875,23.7625 L143.709375,23.7625 L143.709375,488.65 C143.709375,503.259375 131.825,515.145313 117.214063,515.145313 C102.603125,515.145313 90.71875,503.260938 90.71875,488.65 L90.71875,333.3625 C90.71875,333.357813 90.71875,333.353125 90.71875,333.346875 C90.71875,333.340625 90.71875,333.3375 90.71875,333.33125 L90.71875,120.920312 C90.71875,114.359375 85.3984375,109.039062 78.8375,109.039062 C72.2765625,109.039062 66.95625,114.359375 66.95625,120.920312 L66.95625,321.467187 L41.103125,321.467187 C39.16875,321.467187 37.2234375,321.603125 35.3234375,321.875 C15.1859375,324.739062 0,342.234375 0,362.570312 L0,612.785937 C0,635.45 18.4390625,653.889062 41.1046875,653.889062 L222.55,653.889062 L287.164062,653.889062 L534.85625,798.38125 C536.70625,799.459375 538.775,800 540.842188,800 C542.884375,800 544.928125,799.473437 546.759375,798.420312 C550.448438,796.301562 552.723438,792.371875 552.723438,788.11875 L552.723438,637.896875 C630.28125,631.820312 691.53125,566.76875 691.53125,487.678125 C691.53125,452.65 679.242188,418.526563 656.929688,391.595312 Z M210.66875,630.126563 L41.103125,630.126563 C31.540625,630.126563 23.7609375,622.346875 23.7609375,612.785938 L23.7609375,362.56875 C23.7609375,353.989062 30.16875,346.607813 38.6703125,345.4 C39.465625,345.285937 40.284375,345.229688 41.1015625,345.229688 L66.95625,345.229688 L66.95625,488.651563 C66.95625,516.3625 89.5015625,538.909375 117.214062,538.909375 C144.926563,538.909375 167.471875,516.365625 167.471875,488.651563 L167.471875,345.229688 L210.66875,345.229688 L210.66875,630.126563 Z M278.495312,630.126563 L210.495312,630.126563 L210.495312,345.229688 L278.495312,345.229688 L278.495312,630.126563 Z M528.9625,767.432812 L472.9625,735.813745 L472.9625,239.708232 L528.9625,207.921875 L528.9625,767.432812 Z" id="Shape"></path>
        </g>
    </g>
</svg>