<?xml version="1.0" encoding="iso-8859-1"?>
<!-- Generator: Adobe Illustrator 16.0.0, SVG Export Plug-In . SVG Version: 6.00 Build 0)  -->
<!DOCTYPE svg PUBLIC "-//W3C//DTD SVG 1.1//EN" "http://www.w3.org/Graphics/SVG/1.1/DTD/svg11.dtd">
<svg version="1.1" id="Capa_1" xmlns="http://www.w3.org/2000/svg" xmlns:xlink="http://www.w3.org/1999/xlink" x="0px" y="0px"
	 width="612.02px" height="612.02px" viewBox="0 0 612.02 612.02" style="enable-background:new 0 0 612.02 612.02;"
	 xml:space="preserve">
<g>
	<g>
		<g>
			<path d="M592.884,306.01c0-79.212-32.114-150.933-84.033-202.851C456.954,51.241,385.231,19.126,306.02,19.126
				s-150.933,32.115-202.851,84.033C51.251,155.057,19.135,226.798,19.135,306.01s32.115,150.934,84.013,202.853
				c51.898,51.918,123.64,84.032,202.852,84.032c79.212,0,150.933-32.114,202.851-84.032
				C560.749,456.942,592.884,385.222,592.884,306.01L592.884,306.01z M522.378,89.631c55.365,55.365,89.632,131.868,89.632,216.379
				c0,84.491-34.267,161.015-89.611,216.379c-55.385,55.364-131.888,89.631-216.379,89.631c-84.491,0-161.034-34.267-216.378-89.631
				C34.257,467.004,0.01,390.501,0.01,306.01c0-84.491,34.247-161.014,89.631-216.378C145.006,34.247,221.509,0,306.02,0
				C390.491,0,467.033,34.267,522.378,89.631z"/>
			<path d="M86.095,344.221c-5.26,0-9.523-4.263-9.523-9.521s4.263-9.523,9.523-9.523l229.507-0.039c5.26,0,9.522,4.264,9.522,9.522
				s-4.264,9.522-9.522,9.522L86.095,344.221z"/>
			<path d="M400.831,400.264c3.726-3.726,9.802-3.726,13.526,0c3.727,3.726,3.727,9.803,0,13.527
				c-14.024,14.005-30.859,25.361-49.606,33.131l0,0c-18.029,7.471-37.793,11.595-58.413,11.595
				c-20.619,0-40.362-4.144-58.392-11.595c-18.748-7.75-35.602-19.104-49.627-33.131c-14.025-14.025-25.381-30.88-33.131-49.627
				c-7.471-18.03-11.595-37.773-11.595-58.394c0-20.62,4.124-40.363,11.595-58.393c7.75-18.767,19.105-35.622,33.131-49.647
				s30.86-25.361,49.627-33.131c18.03-7.451,37.773-11.595,58.392-11.595c20.62,0,40.363,4.144,58.394,11.595
				c18.747,7.75,35.603,19.086,49.627,33.131c3.727,3.726,3.727,9.802,0,13.527c-3.726,3.725-9.802,3.726-13.526,0
				c-12.353-12.372-27.096-22.313-43.331-29.047c-15.699-6.495-32.974-10.081-51.162-10.081c-18.188,0-35.481,3.586-51.141,10.061
				c-16.276,6.754-31,16.695-43.352,29.047c-12.372,12.372-22.333,27.095-29.047,43.352c-6.495,15.679-10.081,32.972-10.081,51.141
				c0,18.189,3.586,35.462,10.081,51.141c6.734,16.257,16.695,30.999,29.047,43.352c12.372,12.372,27.115,22.333,43.352,29.047
				c15.679,6.495,32.952,10.081,51.141,10.081c18.15,0,35.423-3.586,51.102-10.081v0.021l0.04-0.021
				C373.736,422.576,388.479,412.615,400.831,400.264z"/>
			<path d="M124.346,286.844c-5.259,0-9.523-4.263-9.523-9.523c0-5.259,4.264-9.523,9.523-9.523l229.488-0.04
				c5.26,0,9.521,4.263,9.521,9.522c0,5.26-4.263,9.523-9.521,9.523L124.346,286.844z"/>
		</g>
	</g>
</g>
<g>
</g>
<g>
</g>
<g>
</g>
<g>
</g>
<g>
</g>
<g>
</g>
<g>
</g>
<g>
</g>
<g>
</g>
<g>
</g>
<g>
</g>
<g>
</g>
<g>
</g>
<g>
</g>
<g>
</g>
</svg>
