<?xml version="1.0" ?><svg enable-background="new 0 0 512 512" height="512px" id="Layer_1" version="1.1" viewBox="0 0 512 512" width="512px" xml:space="preserve" xmlns="http://www.w3.org/2000/svg" xmlns:xlink="http://www.w3.org/1999/xlink"><g><path d="   M306.7,165L306.7,165c-28-28-73.4-28-101.3,0l0,0c-22.3,22.3-27.4,56.6-12.6,84.4L256,367.9l63.2-118.5   C334.1,221.6,329,187.4,306.7,165z M283.4,244L283.4,244c-15.2,15.2-39.7,15.2-54.9,0h0c-15.2-15.2-15.2-39.7,0-54.9l0,0   c15.2-15.2,39.7-15.2,54.9,0l0,0C298.6,204.3,298.6,228.9,283.4,244z" fill="none" stroke="#000000" stroke-linecap="round" stroke-linejoin="round" stroke-miterlimit="10" stroke-width="10"/></g></svg>