<?xml version="1.0" encoding="iso-8859-1"?>
<!-- Uploaded to: SVG Repo, www.svgrepo.com, Generator: SVG Repo Mixer Tools -->
<svg fill="#FFF" height="800px" width="800px" version="1.1" id="Capa_1" xmlns="http://www.w3.org/2000/svg" xmlns:xlink="http://www.w3.org/1999/xlink" 
	 viewBox="0 0 512 512" xml:space="preserve">
<g>
	<g>
		<path fill="white" stroke="white" stroke-width="15"  d="M455.145,250.621c-2.681-3.233-7.474-3.682-10.707-1.004c-3.233,2.68-3.683,7.473-1.004,10.707
			c12.024,14.513,18.648,32.906,18.648,51.789c0,42.226-32.391,77.016-73.628,80.865V231.23c10.32,0.945,20.212,3.822,29.495,8.597
			c1.113,0.572,2.301,0.844,3.472,0.844c2.759,0,5.42-1.506,6.769-4.127c1.921-3.734,0.45-8.319-3.284-10.24
			c-11.277-5.8-23.747-9.31-36.451-10.318v-96.154c0-2.723-1.456-5.238-3.817-6.593c-2.362-1.356-5.266-1.346-7.619,0.025
			l-74.203,43.286c-3.628,2.116-4.852,6.773-2.736,10.4c2.117,3.627,6.773,4.852,10.4,2.736l27.049-15.779v316.414l-109.372-63.803
			V217.71l44.35-25.873c3.628-2.116,4.852-6.772,2.736-10.399c-2.118-3.628-6.774-4.853-10.4-2.736l-46.346,27.037h-41.356h-35.25
			V7.604c0-4.199-3.405-7.604-7.604-7.604H85.166c-4.199,0-7.604,3.405-7.604,7.604v29.661c0,4.199,3.405,7.604,7.604,7.604
			c4.199,0,7.604-3.405,7.604-7.604V15.208h33.914v297.528c0,9.35-7.606,16.957-16.957,16.957c-9.351,0-16.957-7.606-16.957-16.957
			v-99.384c0-0.003,0-0.006,0-0.01c0-0.004,0-0.006,0-0.01V77.389c0-4.199-3.405-7.604-7.604-7.604
			c-4.199,0-7.604,3.405-7.604,7.604v128.35H61.016c-1.238,0-2.483,0.087-3.699,0.261c-12.888,1.833-22.607,13.03-22.607,26.045
			v160.138c0,14.505,11.801,26.306,26.307,26.306h116.125h41.353l158.523,92.475c1.184,0.69,2.508,1.036,3.831,1.036
			c1.307,0,2.615-0.337,3.787-1.011c2.361-1.356,3.817-3.871,3.817-6.593v-96.142c49.637-3.889,88.837-45.522,88.837-96.14
			C477.29,289.696,469.425,267.857,455.145,250.621z M169.538,403.281H61.016c-6.12,0-11.099-4.979-11.099-11.098V232.044
			c0-5.491,4.101-10.215,9.542-10.988c0.509-0.073,1.033-0.109,1.556-0.109h16.547v91.79c0,17.735,14.429,32.165,32.165,32.165
			c17.736,0,32.165-14.428,32.165-32.165v-91.79h27.646V403.281z M212.947,403.281h-28.202V220.947h28.202V403.281z
			 M373.246,491.157l-20.509-11.965V145.035l20.509-11.965V491.157z"/>
	</g>
</g>
</svg>