<?xml version="1.0" ?><svg id="katman_1" style="enable-background:new 0 0 512 512;" version="1.1" viewBox="0 0 512 512" xml:space="preserve" xmlns="http://www.w3.org/2000/svg" xmlns:xlink="http://www.w3.org/1999/xlink"><style type="text/css">
	.st0{fill:#F1C410;}
	.st1{fill:#F49C13;}
	.st2{fill:#FFFFFF;}
</style><g><g><circle class="st0" cx="256" cy="256" r="250"/></g><path class="st1" d="M505.4,273c-0.1-0.1-0.2-0.2-0.3-0.3c-34.2-34.1-68.4-68.3-102.5-102.5c-3.3-3.3-7.2-4.9-11.8-4.9   c-6.6,0.1-13.3,0-19.9,0c-38.1,0-76.1,0-114.2,0c0,0.1,0,0.1,0,0.2c-5.6,0-11.2,0-16.8,0c-22.2,0-44.5,0.1-66.7,0.1   c-16.6,0-33.3,0-49.9,0.1c-0.6,0-1.3,0-1.9,0c-3.8,0.2-7,1.6-9.7,4.1c-3.4,3.2-4.9,7.2-4.9,11.8c0.1,19.8,0.1,39.7,0.1,59.5   c0,29.8,0.1,59.5,0,89.3c0,5.6,1.8,10.1,5.8,14.1c40.9,40.8,81.8,81.8,122.7,122.6c12.4,12.4,24.9,24.9,37.3,37.4   c0.3,0.3,0.6,0.6,0.9,0.8C397.8,496.7,497,397.3,505.4,273z"/><path class="st2" d="M405.8,180.2c0-8.5-6.9-15.3-15.4-15.3c0,0,0,0,0,0l-269.1,0.4c-4.1,0-8,1.6-10.9,4.5   c-2.9,2.9-4.5,6.8-4.5,10.9l0.2,151.2c0,4.1,1.6,8,4.5,10.9c2.9,2.9,6.8,4.5,10.9,4.5c0,0,0,0,0,0l269.1-0.4   c8.5,0,15.4-6.9,15.3-15.4L405.8,180.2z M305.7,277.4l69.7,54.1l-239,0.3l70.1-54.4c3.4-2.6,4-7.4,1.4-10.8   c-2.6-3.4-7.4-4-10.8-1.4l-75.5,58.6l-0.2-136.2l130.3,90c1.3,0.9,2.8,1.4,4.4,1.4c1.5,0,3.1-0.5,4.4-1.4l130-90.4l0.2,136.6   l-75.5-58.6c-3.4-2.6-8.2-2-10.8,1.4C301.7,269.9,302.4,274.8,305.7,277.4z M138.2,180.6l235.3-0.3L256,261.9L138.2,180.6z"/></g></svg>