<?xml version="1.0" encoding="iso-8859-1"?>
<!-- Uploaded to: SVG Repo, www.svgrepo.com, Generator: SVG Repo Mixer Tools -->
<!DOCTYPE svg PUBLIC "-//W3C//DTD SVG 1.1//EN" "http://www.w3.org/Graphics/SVG/1.1/DTD/svg11.dtd">
<svg fill="#000000" version="1.1" id="Capa_1" xmlns="http://www.w3.org/2000/svg" xmlns:xlink="http://www.w3.org/1999/xlink" 
	 width="800px" height="800px" viewBox="0 0 64.355 64.355"
	 xml:space="preserve">
<g>
	<g>
		<path d="M32.177,0C19.863,0,9.845,10.02,9.845,22.334c0,11.854,20.262,39.549,21.124,40.721l0.806,1.097
			c0.094,0.129,0.244,0.204,0.402,0.204c0.16,0,0.309-0.075,0.403-0.204l0.806-1.097c0.862-1.172,21.125-28.867,21.125-40.721
			C54.511,10.019,44.491,0,32.177,0z M32.177,3c10.66,0,19.334,8.674,19.334,19.334c0,9.361-15.279,31.541-19.334,37.262
			c-4.055-5.721-19.332-27.896-19.332-37.262C12.845,11.674,21.517,3,32.177,3z"/>
		<g>
			<path d="M32.177,30.834c-4.687,0-8.5-3.813-8.5-8.5c0-4.688,3.813-8.5,8.5-8.5c4.688,0,8.5,3.813,8.5,8.5
				C40.677,27.02,36.864,30.834,32.177,30.834z M32.177,15.834c-3.584,0-6.5,2.916-6.5,6.5s2.916,6.5,6.5,6.5s6.5-2.916,6.5-6.5
				S35.761,15.834,32.177,15.834z"/>
		</g>
	</g>
</g>
</svg>