<?xml version="1.0" encoding="iso-8859-1"?>
<!-- Uploaded to: SVG Repo, www.svgrepo.com, Generator: SVG Repo Mixer Tools -->
<!DOCTYPE svg PUBLIC "-//W3C//DTD SVG 1.1//EN" "http://www.w3.org/Graphics/SVG/1.1/DTD/svg11.dtd">
<svg fill="#000000" height="800px" width="800px" version="1.1" id="Capa_1" xmlns="http://www.w3.org/2000/svg" xmlns:xlink="http://www.w3.org/1999/xlink" 
	 viewBox="0 0 209.081 209.081" xml:space="preserve">
<path d="M183.341,192.152c-1.878,0-3.755-0.714-5.184-2.144l-0.23-0.23c-1.258-1.258-3.453-1.258-4.711,0
	c-2.857,2.859-7.51,2.859-10.367,0l-0.315-0.315c-2.476-2.476-3.588-6.011-2.975-9.457c0.018-0.102,0.044-0.202,0.078-0.301
	l0.561-1.627H48.925l0.561,1.627c0.034,0.099,0.061,0.199,0.078,0.302c0.612,3.446-0.5,6.981-2.975,9.456l-0.315,0.315
	c-1.385,1.385-3.226,2.147-5.184,2.147c-1.959,0-3.8-0.763-5.185-2.147c-0.139-0.138-0.286-0.262-0.44-0.37
	c-0.156-0.068-0.304-0.155-0.438-0.26c-1.245-0.615-2.796-0.405-3.832,0.63l-0.23,0.23c-2.857,2.859-7.51,2.859-10.367,0
	l-0.246-0.246c-0.159-0.113-0.302-0.25-0.423-0.406c-1.308-1.104-3.271-1.041-4.503,0.191l-0.409,0.409
	c-1.385,1.385-3.226,2.147-5.184,2.147c-1.959,0-3.8-0.763-5.184-2.147l-2.461-2.46c-1.385-1.385-2.147-3.226-2.147-5.185v-77.371
	c-0.053-0.26-0.055-0.531,0-0.8v-3.776c-0.054-0.266-0.052-0.533,0-0.79v-7.978c-0.049-0.252-0.048-0.51,0-0.76v-7.219
	c-0.047-0.245-0.048-0.5,0-0.75V18.928c0-1.104,0.896-2,2-2h27.697c0.008,0,0.016,0,0.023,0h14.863c0.007,0.001,0.013,0.001,0.021,0
	h15.118c0.008,0.001,0.014,0.001,0.021,0H73.9c0.006,0.001,0.014,0.001,0.021,0h47.804c0.014,0,0.025,0,0.039,0h85.317
	c1.104,0,2,0.896,2,2v163.385c0,1.959-0.763,3.8-2.147,5.185l-2.46,2.46c-1.385,1.385-3.226,2.147-5.184,2.147
	c-1.959,0-3.8-0.763-5.185-2.147l-0.408-0.409c-1.299-1.299-3.413-1.3-4.712,0l-0.458,0.46
	C187.097,191.438,185.219,192.152,183.341,192.152z M175.605,184.803c1.946,0.009,3.774,0.771,5.15,2.147l0.23,0.23
	c1.296,1.296,3.401,1.299,4.701,0.011l16.447-78.346l-6.259,2.708c-0.162,0.121-0.343,0.218-0.535,0.285L175.605,184.803z
	 M23.335,187.091l0.09,0.09c1.299,1.299,3.412,1.299,4.711,0l0.23-0.23c1.401-1.401,3.232-2.115,5.073-2.143l-19.737-72.97
	c-0.191-0.067-0.371-0.163-0.532-0.283l-6.262-2.709L23.335,187.091z M191.341,184.572c1.959,0,3.8,0.763,5.185,2.147l0.409,0.409
	c1.258,1.258,3.453,1.258,4.711,0l2.46-2.46c0.629-0.629,0.976-1.466,0.976-2.356v-68.037l-14.772,70.368
	C190.648,184.597,190.992,184.572,191.341,184.572z M4.04,114.651v67.661c0,0.891,0.347,1.728,0.976,2.356l2.461,2.46
	c1.258,1.258,3.453,1.258,4.711,0l0.409-0.409c1.672-1.672,3.955-2.364,6.137-2.082L4.04,114.651z M37.986,186.297
	c0.261,0.197,0.511,0.416,0.748,0.653c1.297,1.297,3.411,1.299,4.712,0l0.315-0.315c1.517-1.517,2.217-3.67,1.889-5.784
	l-22.363-64.918l-4.907-2.123L37.986,186.297z M163.473,180.851c-0.329,2.114,0.371,4.267,1.889,5.784l0.315,0.315
	c1.299,1.299,3.412,1.299,4.711,0c0.206-0.206,0.423-0.399,0.648-0.577l19.627-72.563l-4.814,2.083L163.473,180.851z
	 M47.547,174.078h114.028l20.018-58.11c-7.368-1.588-30.048-8.154-45.509-30.916c-10.199-15.016-14.116-33.539-15.575-47.184
	c-0.83-0.433-1.582-0.984-2.248-1.651l-0.431-0.429c-0.997-0.998-2.321-1.547-3.729-1.547c-1.409,0-2.733,0.549-3.729,1.545
	l-0.29,0.29c-1.752,1.752-4.08,2.717-6.558,2.717s-4.806-0.965-6.558-2.717l-0.158-0.158c-2.057-2.057-5.402-2.057-7.459,0
	l-0.116,0.117c-0.153,0.153-0.313,0.301-0.479,0.444c-1.339,13.755-5.167,33.041-15.717,48.572
	c-15.461,22.762-38.141,29.328-45.509,30.916L47.547,174.078z M20.835,110.514l4.271,1.849c3.831-0.698,28.649-6.043,44.622-29.559
	c10.109-14.883,13.756-33.84,15.033-47.205c-0.005-0.096-0.003-0.192,0.006-0.289c0.606-6.537,0.643-11.741,0.604-14.382h-9.401
	c0.14,8.285-0.465,38.744-15.634,61.076C47.73,100.566,30.09,107.843,20.835,110.514z M123.712,20.928
	c-0.104,7.997,0.518,39.553,15.681,61.876c15.934,23.457,40.554,28.817,44.565,29.549l4.25-1.839
	c-9.256-2.671-26.896-9.948-39.503-28.51c-15.169-22.332-15.772-52.791-15.633-61.076H123.712z M137.084,20.928
	c-0.093,7.761,0.551,37.659,14.93,58.828c15.048,22.153,38.231,27.348,42.319,28.106l6.364-2.754
	c-7.931-2.008-26.136-8.459-38.86-27.193c-14.108-20.769-14.748-49.046-14.627-56.987H137.084z M8.345,105.109l6.362,2.753
	c4.085-0.766,27.309-6.004,42.321-28.105C71.425,58.563,72.057,28.683,71.96,20.928H61.833c0.121,7.941-0.52,36.219-14.627,56.987
	C34.481,96.65,16.276,103.101,8.345,105.109z M151.222,20.928c-0.078,7.434,0.593,35.114,13.924,54.739
	c14.854,21.87,38.34,26.024,39.936,26.282v-0.655c-8.299-3.731-19.518-10.735-28.105-23.379
	c-14.107-20.769-14.747-49.046-14.626-56.987H151.222z M4.04,101.259v0.677c2.168-0.363,25.208-4.702,39.857-26.269
	c13.347-19.649,14.006-47.312,13.925-54.739H46.694c0.121,7.941-0.52,36.219-14.627,56.987
	C23.506,90.518,12.331,97.519,4.04,101.259z M166.362,20.928c-0.078,7.434,0.593,35.114,13.923,54.739
	c7.517,11.065,17.192,17.54,24.797,21.214V92.22c-5.106-4.095-9.552-8.903-13.22-14.305c-14.107-20.769-14.748-49.046-14.627-56.987
	H166.362z M4.04,92.155v4.688c7.592-3.681,17.228-10.148,24.718-21.176c13.347-19.649,14.006-47.312,13.925-54.739H31.808
	c0.121,7.941-0.519,36.219-14.627,56.987C13.531,83.288,9.114,88.075,4.04,92.155z M181.246,20.928
	c-0.077,7.434,0.594,35.114,13.924,54.739c2.831,4.169,6.154,7.961,9.911,11.314v-3.136c-1.103-1.972-2.142-4.074-3.091-6.257
	c-8.989-20.668-9.39-48.805-9.312-56.661H181.246z M4.04,83.706v3.205c3.724-3.336,7.021-7.104,9.832-11.244
	C27.22,56.018,27.878,28.356,27.797,20.928H16.364c0.078,7.856-0.322,35.993-9.312,56.661C6.126,79.718,5.115,81.773,4.04,83.706z
	 M196.687,20.928c-0.049,7.345,0.369,34.068,8.395,53.697V20.928H196.687z M4.04,20.928v53.503
	c7.949-19.61,8.364-46.182,8.315-53.503H4.04z M93.08,30.379c2.375,0,4.748,0.903,6.556,2.711l0.158,0.158
	c0.996,0.996,2.32,1.545,3.729,1.545s2.733-0.549,3.729-1.545l0.29-0.29c1.752-1.752,4.08-2.717,6.558-2.717
	c2.187,0,4.258,0.752,5.919,2.134c-0.365-5.139-0.388-9.159-0.354-11.447H89.421c0.038,2.134,0.031,5.736-0.25,10.31
	C90.407,30.665,91.743,30.379,93.08,30.379z"/>
</svg>